<svg width="100" height="101" viewBox="0 0 100 101" fill="none" xmlns="http://www.w3.org/2000/svg">
<g clip-path="url(#clip0_426_936)">
<path d="M17.7082 1.3125H82.2916C92.0716 1.3125 100 9.24087 100 19.0207V81.1041C100 90.8841 92.0716 98.8125 82.2916 98.8125H17.7082C7.92837 98.8123 0 90.8841 0 81.1041V19.0207C0 9.24067 7.92837 1.3125 17.7082 1.3125Z" fill="#00005B"/>
<path d="M40.173 59.6458H24.6765L21.5238 69.4586C21.4353 69.8271 21.0973 70.0806 20.7187 70.0624H12.87C12.4225 70.0624 12.2659 69.8164 12.4004 69.3245L25.8171 30.8441C25.9512 30.4416 26.0854 30.0482 26.2195 29.5335C26.3953 28.6386 26.4851 27.7288 26.4878 26.8167C26.4556 26.5896 26.6134 26.3793 26.8405 26.3471C26.8793 26.3417 26.9186 26.3417 26.9574 26.3471H37.6238C37.9361 26.3471 38.1151 26.459 38.1606 26.6826L53.3884 69.3915C53.5225 69.839 53.3884 70.0628 52.986 70.0624H44.265C43.9551 70.0968 43.6679 69.8958 43.5943 69.5928L40.173 59.6458ZM32.3911 33.997H32.3239L27.0916 51.3716H37.6908L32.3911 33.997Z" fill="#9999FF"/>
<path d="M78.0754 55.8264H64.86C65.0219 57.1339 65.4562 58.3931 66.1347 59.5224C66.8849 60.6406 67.9458 61.515 69.1869 62.038C70.8689 62.7657 72.688 63.1223 74.5202 63.0832C75.9737 63.0553 77.422 62.8964 78.8471 62.6081C80.1216 62.4361 81.3707 62.1104 82.5673 61.6385C82.7905 61.4604 82.9027 61.5715 82.9027 61.9739V68.3468C82.9139 68.5204 82.8791 68.694 82.802 68.85C82.7253 68.972 82.622 69.0751 82.5001 69.1519C81.1731 69.7396 79.7763 70.1557 78.3441 70.3901C76.3983 70.7556 74.4204 70.9241 72.4408 70.8933C69.2648 70.8933 66.6037 70.4014 64.4578 69.4174C62.4291 68.5237 60.6374 67.1684 59.2254 65.4596C57.9064 63.8494 56.9254 61.9899 56.3408 59.9924C55.7618 58.0206 55.4681 55.9761 55.4687 53.9214C55.4625 51.6776 55.8136 49.447 56.5085 47.3138C57.1779 45.2326 58.2364 43.2977 59.6279 41.6116C62.6943 37.8961 66.9146 36.3477 71.6357 36.3477C75.7041 36.3477 79.8773 37.695 82.5032 40.9407C83.6022 42.3589 84.4424 43.9599 84.9853 45.67C85.5138 47.3181 85.7853 49.0376 85.7903 50.7684C85.7903 51.7525 85.7568 52.6471 85.6896 53.4518C85.6226 54.2566 85.5668 54.8381 85.522 55.1959C85.4859 55.502 85.2264 55.7326 84.9183 55.7326C84.65 55.7326 84.1915 55.7662 83.5432 55.8332C82.8944 55.9002 82.0895 55.9449 81.1284 55.9674C80.1653 55.99 79.1488 55.8264 78.0754 55.8264ZM64.86 49.7151H73.6479C74.7213 49.7151 75.5151 49.704 76.0294 49.6816C76.3735 49.6472 76.7058 49.5371 77.0024 49.3592V48.9565C76.9889 48.4319 76.8985 47.9121 76.7341 47.4137C75.9901 45.0614 73.7659 43.4961 71.3005 43.5901C68.9936 43.4506 66.8224 44.6875 65.766 46.7428C65.306 47.6785 65.0002 48.6822 64.86 49.7151Z" fill="#9999FF"/>
</g>
<defs>
<clipPath id="clip0_426_936">
<rect width="100" height="100" fill="white" transform="translate(0 0.0625)"/>
</clipPath>
</defs>
</svg>
