<svg width="100" height="101" viewBox="0 0 100 101" fill="none" xmlns="http://www.w3.org/2000/svg">
<g clip-path="url(#clip0_426_904)">
<path d="M17.7084 1.3125H82.2918C92.0834 1.3125 100 9.2291 100 19.0209V81.1043C100 90.8959 92.0834 98.8127 82.2916 98.8127H17.7084C7.9166 98.8125 0 90.8959 0 81.1041V19.0209C0 9.2291 7.9166 1.3125 17.7084 1.3125Z" fill="#390000"/>
<path d="M48.4585 59.8125H32.9585L29.7919 69.6042C29.7085 69.9792 29.3753 70.2292 29.0003 70.1875H21.1669C20.7085 70.1875 20.5835 69.9375 20.7085 69.4375L34.1251 30.8125C34.2501 30.3959 34.3751 29.9375 34.5417 29.4375C34.7083 28.5625 34.7917 27.6459 34.7917 26.7292C34.7501 26.5208 34.9167 26.3125 35.1251 26.2708H35.2501H45.9167C46.2501 26.2708 46.4167 26.3958 46.4583 26.6042L61.6667 69.5208C61.7917 69.9792 61.6667 70.1874 61.2501 70.1874H52.5417C52.2501 70.229 51.9583 70.0207 51.8751 69.729L48.4585 59.8125ZM35.3751 51.3542H45.9585L40.6251 33.9791L35.3751 51.3542Z" fill="#FF9A00"/>
<path d="M70.75 33.3959C69.375 33.4375 68.0416 32.8958 67.0416 31.9375C66.0832 30.8958 65.5832 29.5208 65.625 28.1041C65.5834 26.6875 66.125 25.3541 67.125 24.3957C68.125 23.4373 69.4584 22.9373 70.8334 22.9373C72.4584 22.9373 73.7084 23.4373 74.625 24.3957C75.5416 25.3957 76.0416 26.7291 76 28.1041C76.0416 29.5207 75.5416 30.8957 74.5416 31.9375C73.5834 32.9374 72.1666 33.4791 70.75 33.3959Z" fill="#FF9A00"/>
<path d="M66.0835 69.5625V37.4792C66.0835 37.0625 66.2501 36.8958 66.6251 36.8958H74.8751C75.2501 36.8958 75.4167 37.1042 75.4167 37.4792V69.5625C75.4167 70.0209 75.2501 70.2291 74.8751 70.2291H66.7085C66.2917 70.2291 66.0835 69.9791 66.0835 69.5625Z" fill="#FF9A00"/>
</g>
<defs>
<clipPath id="clip0_426_904">
<rect width="100" height="100" fill="white" transform="translate(0 0.0625)"/>
</clipPath>
</defs>
</svg>
