<svg width="36" height="36" viewBox="0 0 36 36" fill="none" xmlns="http://www.w3.org/2000/svg">
<rect x="1.28662" y="0.6875" width="33.7985" height="34.75" rx="16.8992" stroke="#8D58F8"/>
<path d="M16.5205 17.4985C16.9106 17.3023 17.2055 17.0837 17.4076 16.8476C17.7671 16.4222 17.9446 15.8582 17.9446 15.1591C17.9446 14.4787 17.7671 13.8971 17.4123 13.4095C16.8201 12.6152 15.8178 12.2086 14.4008 12.1875H8.78662V23.6473H14.0212C14.6111 23.6473 15.1575 23.5967 15.6627 23.4933C16.168 23.3888 16.6051 23.1972 16.9752 22.9176C17.3042 22.6744 17.5791 22.3724 17.7977 22.0164C18.1431 21.4782 18.3159 20.8684 18.3159 20.1892C18.3159 19.5312 18.1643 18.9708 17.8635 18.5102C17.5592 18.0496 17.1127 17.7124 16.5205 17.4985ZM11.1025 14.1779H13.6311C14.1869 14.1779 14.6452 14.2379 15.0047 14.3565C15.4207 14.5293 15.6286 14.8806 15.6286 15.4164C15.6286 15.897 15.47 16.233 15.1563 16.4222C14.8402 16.6114 14.4301 16.7065 13.9272 16.7065H11.1025V14.1779ZM15.1011 21.4571C14.8214 21.5922 14.4278 21.6592 13.9237 21.6592H11.1025V18.603H13.9625C14.4607 18.6065 14.8484 18.6723 15.1257 18.7957C15.6192 19.0189 15.8648 19.4278 15.8648 20.0259C15.8648 20.7309 15.611 21.2056 15.1011 21.4571ZM20.7998 12.7221H25.7783V14.1486H20.7998V12.7221ZM27.5079 18.3516C27.4045 17.6877 27.1765 17.1037 26.8217 16.5996C26.4328 16.0286 25.9393 15.6103 25.3388 15.3459C24.7408 15.0803 24.0675 14.9476 23.3178 14.9488C22.0594 14.9488 21.0372 15.3424 20.2464 16.1237C19.458 16.9075 19.0632 18.0343 19.0632 19.503C19.0632 21.0693 19.4991 22.2008 20.3756 22.8953C21.2487 23.5909 22.2568 23.9375 23.4013 23.9375C24.7866 23.9375 25.8641 23.5251 26.6337 22.7026C27.126 22.1832 27.4045 21.6721 27.4656 21.1704H25.172C25.0392 21.4183 24.8853 21.6122 24.709 21.7532C24.3894 22.0117 23.9735 22.1409 23.4635 22.1409C22.9783 22.1409 22.567 22.034 22.2239 21.8213C21.6576 21.4806 21.3615 20.8837 21.3239 20.0341H27.5831C27.5925 19.3021 27.569 18.7393 27.5079 18.3516ZM21.3803 18.5713C21.4625 18.0202 21.6623 17.5831 21.9795 17.26C22.2968 16.938 22.7456 16.7759 23.3202 16.7747C23.8501 16.7747 24.2931 16.9263 24.6538 17.2306C25.0098 17.5373 25.2108 17.9826 25.2519 18.5713H21.3803Z" fill="#8D58F8"/>
</svg>
