<svg width="70" height="71" viewBox="0 0 70 71" fill="none" xmlns="http://www.w3.org/2000/svg">
<path fill-rule="evenodd" clip-rule="evenodd" d="M16.0514 49.954L12.7011 46.6036C12.5441 46.4466 12.4384 46.2458 12.3979 46.0275C12.3574 45.8093 12.384 45.5839 12.4742 45.3811L14.1781 41.549C13.0896 39.6868 12.2605 37.6817 11.7053 35.5942L7.79378 34.0888C7.58667 34.0091 7.40858 33.8686 7.28298 33.6856C7.15738 33.5027 7.09017 33.286 7.09021 33.0641V25.8096C7.09017 25.5877 7.15738 25.371 7.28298 25.1881C7.40858 25.0051 7.58667 24.8645 7.79378 24.7849L11.7049 23.2796C12.258 21.1905 13.09 19.1854 14.1783 17.3183L12.4742 13.4854C12.384 13.2825 12.3574 13.0571 12.3979 12.8389C12.4384 12.6206 12.5441 12.4198 12.7011 12.2628L17.8297 7.1343C17.9867 6.97732 18.1875 6.87159 18.4058 6.83107C18.624 6.79054 18.8494 6.81711 19.0523 6.90728L22.8851 8.61157C24.7496 7.52387 26.7528 6.69375 28.8402 6.14386L30.352 2.22606C30.4318 2.01919 30.5724 1.84133 30.7553 1.71589C30.9381 1.59045 31.1546 1.52331 31.3764 1.52332H38.631C39.0854 1.52332 39.4929 1.80332 39.656 2.22757L41.1609 6.14414C43.2479 6.69405 45.2508 7.52407 47.115 8.61157L50.9478 6.90728C51.1507 6.81711 51.3761 6.79054 51.5943 6.83107C51.8126 6.87159 52.0134 6.97732 52.1703 7.1343L57.299 12.2628C57.4558 12.4196 57.5615 12.6202 57.6021 12.8381C57.6427 13.0561 57.6164 13.2813 57.5266 13.484L55.8285 17.3174C56.9176 19.184 57.748 21.19 58.2969 23.2803L62.2063 24.7849C62.4134 24.8645 62.5915 25.0051 62.7171 25.1881C62.8427 25.371 62.9099 25.5877 62.9099 25.8096V33.0641C62.9099 33.286 62.8427 33.5027 62.7171 33.6856C62.5915 33.8686 62.4134 34.0091 62.2063 34.0888L58.2963 35.5937C57.7456 37.6805 56.9121 39.6807 55.8279 41.5475L57.5266 45.3824C57.6164 45.5852 57.6427 45.8103 57.6021 46.0283C57.5615 46.2463 57.4558 46.4468 57.299 46.6036L53.9486 49.954L59.4387 61.751C59.7077 62.3182 59.6343 62.9283 59.2601 63.4032C58.8917 63.8933 58.3262 64.1173 57.715 64.0067L50.894 62.8168L47.411 68.7973C47.1155 69.3191 46.5757 69.6233 45.9627 69.6006C45.355 69.5781 44.8523 69.2515 44.5822 68.6886C44.5803 68.6847 44.5785 68.6808 44.5767 68.6769L39.2199 57.1717C39.044 57.2837 38.8396 57.3432 38.631 57.3431H31.3764C31.1655 57.3432 30.959 57.2824 30.7818 57.1681L25.4291 68.6644C25.1755 69.2325 24.6533 69.5779 24.0373 69.6006C23.4267 69.6233 22.8885 69.3215 22.5927 68.8037L19.1125 62.8168L12.2852 64.0067C11.6722 64.1176 11.1053 63.8921 10.7402 63.4035C10.3652 62.9246 10.2931 62.3164 10.5614 61.751L16.0514 49.954ZM52.2955 51.6069L52.1703 51.7321C52.0136 51.8889 51.813 51.9945 51.5951 52.0351C51.3772 52.0757 51.152 52.0494 50.9493 51.9597L47.1166 50.262C45.2522 51.3506 43.2485 52.1807 41.1604 52.7297L40.4426 54.5948L46.0842 66.712L49.3809 61.0512C49.4938 60.8574 49.6633 60.7027 49.8667 60.6082C50.0701 60.5136 50.2975 60.4835 50.5185 60.5221L56.9681 61.6471L52.2955 51.6069ZM29.5614 54.5862L28.847 52.73C26.7542 52.1792 24.753 51.3455 22.8856 50.261L19.0507 51.9597C18.848 52.0494 18.6229 52.0757 18.405 52.0351C18.187 51.9945 17.9865 51.8889 17.8297 51.7321L17.7045 51.6069L13.0318 61.6473L19.4889 60.5221C19.7099 60.4835 19.9375 60.5136 20.1409 60.6084C20.3444 60.7031 20.5139 60.8579 20.6267 61.0519L23.9163 66.711L29.5614 54.5862ZM39.3155 7.46439L37.8766 3.71939H32.1296L30.6841 7.46577C30.6199 7.63208 30.5162 7.78027 30.382 7.89755C30.2477 8.01482 30.0869 8.09764 29.9135 8.13886C27.6605 8.67406 25.5076 9.56619 23.5364 10.7814C23.3844 10.8751 23.2119 10.9303 23.0337 10.9423C22.8556 10.9542 22.6772 10.9226 22.5141 10.8501L18.8491 9.22043L14.7873 13.2824L16.4168 16.9473C16.4893 17.1104 16.521 17.2888 16.5091 17.4669C16.4971 17.645 16.442 17.8175 16.3483 17.9695C15.1307 19.9454 14.2404 22.0952 13.6978 24.3564C13.6562 24.5294 13.5732 24.6898 13.4559 24.8237C13.3386 24.9575 13.1905 25.0609 13.0244 25.1248L9.28629 26.5635V32.3101L13.0244 33.7488C13.1904 33.8127 13.3384 33.916 13.4557 34.0497C13.5729 34.1835 13.6559 34.3437 13.6975 34.5166C14.2401 36.7704 15.1301 38.9269 16.3474 40.8954C16.4414 41.0475 16.4969 41.2202 16.509 41.3986C16.5211 41.577 16.4895 41.7557 16.4168 41.9191L14.7873 45.5841L18.8499 49.6468L22.5156 48.0231C22.6781 47.9511 22.8557 47.9196 23.0331 47.9314C23.2105 47.9432 23.3823 47.9979 23.5339 48.0907C25.5097 49.3012 27.6591 50.1991 29.9201 50.7347C30.0938 50.7759 30.2548 50.8588 30.3893 50.9762C30.5237 51.0937 30.6275 51.2421 30.6916 51.4087L32.1303 55.147H37.877L39.3157 51.4087C39.3798 51.2423 39.4835 51.0939 39.6178 50.9765C39.7521 50.8591 39.913 50.7762 40.0866 50.735C42.3393 50.1995 44.4946 49.3098 46.4623 48.0931C46.6142 47.9992 46.7866 47.9437 46.9647 47.9315C47.1428 47.9193 47.3212 47.9507 47.4845 48.0231L51.1501 49.6468L55.2136 45.5832L53.59 41.9177C53.518 41.7552 53.4865 41.5775 53.4983 41.4002C53.5101 41.2228 53.5648 41.0509 53.6576 40.8993C54.8681 38.9235 55.766 36.7739 56.3017 34.5198C56.343 34.3462 56.4259 34.1853 56.5433 34.051C56.6607 33.9166 56.8091 33.8129 56.9756 33.7488L60.7138 32.3101V26.5635L56.9756 25.1248C56.809 25.0607 56.6605 24.9569 56.5431 24.8225C56.4256 24.688 56.3427 24.5269 56.3016 24.3532C55.7677 22.0977 54.8755 19.9424 53.659 17.9695C53.5655 17.8177 53.5104 17.6455 53.4983 17.4676C53.4863 17.2898 53.5178 17.1117 53.59 16.9487L55.2136 13.2832L51.151 9.22043L47.486 10.8501C47.3228 10.9226 47.1445 10.9542 46.9663 10.9423C46.7882 10.9303 46.6157 10.8751 46.4637 10.7814C44.4925 9.56619 42.3396 8.67406 40.0866 8.13886C39.9129 8.09757 39.7519 8.01456 39.6176 7.89704C39.4832 7.77952 39.3795 7.63102 39.3155 7.46439ZM34.9985 10.4873C45.4659 10.4873 53.9533 18.9643 53.9533 29.4318C53.9533 39.8988 45.4657 48.3864 34.9985 48.3864C24.5312 48.3864 16.0542 39.8991 16.0542 29.4318C16.0542 18.9642 24.5311 10.4873 34.9985 10.4873ZM34.9985 12.6834C25.7444 12.6834 18.2503 20.1776 18.2503 29.4318C18.2503 38.686 25.7442 46.1903 34.9985 46.1903C44.2529 46.1903 51.7572 38.6862 51.7572 29.4318C51.7572 20.1774 44.2528 12.6834 34.9985 12.6834ZM29.2147 39.6686H23.9838C23.6926 39.6686 23.4133 39.553 23.2074 39.347C23.0015 39.1411 22.8858 38.8618 22.8858 38.5706V25.8224C22.8858 25.5312 23.0015 25.2519 23.2074 25.0459C23.4133 24.84 23.6926 24.7243 23.9838 24.7243H29.2817C30.3017 23.9843 31.418 23.2789 32.3034 22.4165C33.1012 21.6394 33.699 20.7234 33.699 19.4469V15.577C33.699 15.2858 33.8147 15.0065 34.0206 14.8006C34.2265 14.5946 34.5058 14.4789 34.797 14.4789C37.9532 14.4789 40.5368 17.0625 40.5368 20.2187V23.2204C40.5368 23.2707 40.5333 23.3208 40.5265 23.3705C40.4956 23.5946 40.4353 23.8484 40.343 24.1193C40.4916 24.0963 40.6418 24.0848 40.7922 24.0849H45.3871C47.0053 24.0849 48.329 25.4085 48.329 27.0269C48.329 27.5247 48.2038 27.9946 47.9834 28.4067C48.6662 28.9466 49.1064 29.7818 49.1064 30.715C49.1064 31.8171 48.4925 32.7826 47.5896 33.2864C47.736 33.6405 47.8112 34.0199 47.8109 34.403C47.8109 35.4431 47.2665 36.3601 46.4494 36.8842C46.6222 37.264 46.7114 37.6765 46.711 38.0938C46.711 39.7122 45.3873 41.0358 43.769 41.0358H40.7922C40.5833 41.0358 40.3795 41.0137 40.1826 40.9719C35.1229 41.8428 32.1875 42.2898 29.2147 39.6686ZM28.5447 26.9204H25.0819V37.4726H28.5447V26.9204ZM37.441 32.1358C37.1173 32.3808 36.7786 32.6054 36.4271 32.8084C35.9017 33.1101 35.2299 32.9285 34.9281 32.4029C34.6263 31.8774 34.808 31.2058 35.3334 30.904C36.2788 30.361 38.9585 28.7049 37.2458 26.2061C37.1009 25.9948 37.0345 25.7393 37.0581 25.4842C37.0817 25.229 37.1939 24.9901 37.3751 24.8089C37.9347 24.2494 38.2561 23.6046 38.3407 23.1349V20.2187C38.3407 18.6529 37.3107 17.3153 35.8951 16.8503V19.4469C35.8951 21.3873 35.0485 22.8085 33.8356 23.9897C32.9256 24.8761 31.7944 25.6169 30.7412 26.3776C30.7473 32.8778 30.7486 36.7814 30.7446 38.0872C32.0994 39.2395 33.4591 39.5402 35.1448 39.4626C36.0185 39.4226 36.9694 39.2891 38.0332 39.1132C37.9119 38.787 37.8499 38.4418 37.8501 38.0938C37.8501 37.3967 38.0957 36.7543 38.5047 36.2488C38.0957 35.7426 37.8501 35.0998 37.8501 34.403C37.8501 33.9052 37.9753 33.4354 38.1959 33.0233C37.8882 32.7801 37.6317 32.4785 37.441 32.1358ZM40.5807 38.809C40.6493 38.8295 40.7206 38.8398 40.7922 38.8398H43.769C44.1794 38.8398 44.515 38.5042 44.515 38.0938C44.515 37.6834 44.1794 37.3478 43.769 37.3478H43.7677L41.4059 37.3451L40.7971 37.3478H40.7922C40.3818 37.3478 40.0462 37.6834 40.0462 38.0938C40.0462 38.4192 40.2573 38.6977 40.5495 38.799L40.5807 38.809ZM43.7703 35.1517H44.8688C45.2796 35.1517 45.6148 34.8149 45.6148 34.403C45.6148 33.9926 45.2792 33.657 44.8688 33.657H40.7922C40.3818 33.657 40.0462 33.9926 40.0462 34.403C40.0462 34.8122 40.3786 35.149 40.7873 35.1517H40.7922L41.3991 35.149H41.4053L43.769 35.1517H43.7703ZM40.0149 31.4609H46.1643C46.5746 31.4609 46.9103 31.1254 46.9103 30.715C46.9103 30.3047 46.5746 29.969 46.1643 29.969H40.0149C39.6045 29.969 39.2689 30.3047 39.2689 30.715C39.2689 31.1254 39.6045 31.4609 40.0149 31.4609ZM45.3871 27.7729C45.7973 27.7729 46.1329 27.4373 46.1329 27.0269C46.1329 26.6167 45.7973 26.2809 45.3871 26.2809H40.7922C40.3818 26.2809 40.0462 26.6167 40.0462 27.0269C40.0462 27.4373 40.3818 27.7729 40.7922 27.7729H45.3871Z" fill="#8D58F8"/>
</svg>
