<svg width="100" height="101" viewBox="0 0 100 101" fill="none" xmlns="http://www.w3.org/2000/svg">
<g clip-path="url(#clip0_426_870)">
<path d="M50.1169 50.0626C50.1169 40.8579 57.5789 33.396 66.7835 33.396C75.9882 33.396 83.4501 40.8581 83.4501 50.0626C83.4501 59.2675 75.988 66.7292 66.7835 66.7292C57.5787 66.7292 50.1169 59.2673 50.1169 50.0626Z" fill="#00BCFF"/>
<path d="M16.7836 83.3959C16.7836 74.1912 24.2455 66.7293 33.4502 66.7293L42.332 62.04L50.1168 66.7293V83.3959C50.1168 92.6008 42.6549 100.062 33.4502 100.062C24.2455 100.062 16.7836 92.6006 16.7836 83.3959Z" fill="#00CF7F"/>
<path d="M50.117 0.0625L41.0479 15.8184L50.117 33.3957H66.5498C75.7547 33.3957 83.2164 25.9338 83.2164 16.7291C83.2164 7.52441 75.7545 0.0625 66.5498 0.0625H50.117Z" fill="#FF7361"/>
<path d="M16.5496 16.7291C16.5496 25.9338 24.0115 33.3957 33.2162 33.3957L42.0574 36.8105L50.1165 33.3957V0.0625H33.216C24.0115 0.0625 16.5496 7.52441 16.5496 16.7291Z" fill="#FF4D12"/>
<path d="M16.7836 50.0625C16.7836 59.2674 24.2455 66.7292 33.4502 66.7292H50.1168V33.3958H33.4502C24.2455 33.3958 16.7836 40.8579 16.7836 50.0625Z" fill="#B659FF"/>
</g>
<defs>
<clipPath id="clip0_426_870">
<rect width="100" height="100" fill="white" transform="translate(0 0.0625)"/>
</clipPath>
</defs>
</svg>
