<svg width="35" height="35" viewBox="0 0 35 35" fill="none" xmlns="http://www.w3.org/2000/svg">
<rect x="0.850098" y="0.5625" width="33" height="33" rx="16.5" stroke="#8D58F8"/>
<path d="M26.3456 26.0625L26.3501 26.0618V19.4602C26.3501 16.2307 25.6548 13.743 21.8793 13.743C20.0643 13.743 18.8463 14.739 18.3491 15.6833H18.2966V14.0445H14.7168V26.0618H18.4443V20.1112C18.4443 18.5445 18.7413 17.0295 20.6816 17.0295C22.5933 17.0295 22.6218 18.8175 22.6218 20.2118V26.0625H26.3456ZM8.6471 14.0452H12.3791V26.0625H8.6471V14.0452ZM10.5116 8.0625C9.31835 8.0625 8.3501 9.03075 8.3501 10.224C8.3501 11.4172 9.31835 12.4057 10.5116 12.4057C11.7048 12.4057 12.6731 11.4172 12.6731 10.224C12.6727 9.65086 12.4448 9.1013 12.0396 8.69603C11.6343 8.29075 11.0847 8.0629 10.5116 8.0625Z" fill="#8D58F8"/>
</svg>
