<svg width="50" height="51" viewBox="0 0 50 51" fill="none" xmlns="http://www.w3.org/2000/svg">
<rect y="0.0625" width="50" height="50" rx="25" fill="url(#paint0_linear_426_1035)"/>
<g clip-path="url(#clip0_426_1035)">
<path d="M24.4865 24.8446C23.3471 24.8446 22.2075 24.4109 21.3402 23.5434C19.6053 21.8088 19.6053 18.986 21.3402 17.2511C22.1805 16.4106 23.2979 15.9478 24.4865 15.9478C25.6751 15.9478 26.7922 16.4108 27.6327 17.2511C29.3676 18.986 29.3676 21.8088 27.6327 23.5434C26.7652 24.4109 25.6258 24.8446 24.4865 24.8446ZM24.4865 17.709C23.7978 17.709 23.1091 17.9711 22.5847 18.4955C21.5359 19.5442 21.5359 21.2505 22.5847 22.2993C23.0926 22.8071 23.768 23.0868 24.4865 23.0868C25.205 23.0868 25.8804 22.8071 26.3883 22.2993C27.437 21.2505 27.437 19.5442 26.3883 18.4955C25.8639 17.9711 25.1752 17.709 24.4865 17.709Z" fill="white"/>
<path d="M24.4968 40.0625L23.8163 39.2633C23.418 38.7951 14.0586 27.7173 14.0586 20.4903C14.0586 14.7404 18.7365 10.0625 24.4865 10.0625C30.2364 10.0625 34.9143 14.7404 34.9143 20.4904C34.9143 27.3618 25.5631 38.7707 25.1651 39.253L24.4968 40.0625ZM24.4865 11.8224C19.707 11.8224 15.8185 15.7108 15.8185 20.4904C15.8185 23.1765 17.4202 27.0638 20.4506 31.7323C22.0232 34.1551 23.6069 36.2067 24.4769 37.2926C25.3481 36.177 26.9469 34.0578 28.5294 31.5891C31.5552 26.8693 33.1544 23.0312 33.1544 20.4904C33.1544 15.7109 29.266 11.8224 24.4865 11.8224Z" fill="white"/>
</g>
<defs>
<linearGradient id="paint0_linear_426_1035" x1="0" y1="25.0625" x2="50" y2="25.0625" gradientUnits="userSpaceOnUse">
<stop stop-color="#7F4BEA"/>
<stop offset="1" stop-color="#2E165A"/>
</linearGradient>
<clipPath id="clip0_426_1035">
<rect width="30" height="30" fill="white" transform="translate(10 10.0625)"/>
</clipPath>
</defs>
</svg>
