<svg width="50" height="51" viewBox="0 0 50 51" fill="none" xmlns="http://www.w3.org/2000/svg">
<rect y="0.0625" width="50" height="50" rx="25" fill="url(#paint0_linear_426_1026)"/>
<path d="M32.9688 36.8984H17.0312C13.1542 36.8984 10 33.7442 10 29.8672V20.2578C10 16.3808 13.1542 13.2266 17.0312 13.2266H32.9688C36.8458 13.2266 40 16.3808 40 20.2578V29.8672C40 33.7442 36.8458 36.8984 32.9688 36.8984ZM17.0312 15.5703C14.4466 15.5703 12.3438 17.6731 12.3438 20.2578V29.8672C12.3438 32.4519 14.4466 34.5547 17.0312 34.5547H32.9688C35.5534 34.5547 37.6562 32.4519 37.6562 29.8672V20.2578C37.6562 17.6731 35.5534 15.5703 32.9688 15.5703H17.0312ZM29.2941 27.1371L35.0864 22.7125C35.6007 22.3197 35.6992 21.5843 35.3063 21.0699C34.9134 20.5556 34.178 20.4571 33.6637 20.85L27.8721 25.274C26.1998 26.5496 23.8643 26.5505 22.1908 25.2772L16.5787 20.9146C16.0677 20.5174 15.3314 20.6097 14.9342 21.1207C14.537 21.6317 14.6293 22.3679 15.1403 22.7651L20.7568 27.131C20.7596 27.1333 20.7624 27.1354 20.7653 27.1376C22.0206 28.095 23.5247 28.5737 25.0292 28.5737C26.5336 28.5737 28.0384 28.0947 29.2941 27.1371Z" fill="white"/>
<defs>
<linearGradient id="paint0_linear_426_1026" x1="0" y1="25.0625" x2="50" y2="25.0625" gradientUnits="userSpaceOnUse">
<stop stop-color="#7F4BEA"/>
<stop offset="1" stop-color="#2E165A"/>
</linearGradient>
</defs>
</svg>
