<svg width="38" height="38" viewBox="0 0 38 38" fill="none" xmlns="http://www.w3.org/2000/svg">
<path d="M30.9923 27.2977C31.5735 27.298 32.1323 27.5219 32.5529 27.9229C32.9735 28.324 33.2237 28.8715 33.2516 29.452C33.2795 30.0325 33.0831 30.6015 32.7029 31.0411C32.3228 31.4806 31.788 31.7571 31.2096 31.8132L30.9923 31.8238H6.85353C6.27236 31.8235 5.71358 31.5996 5.29297 31.1986C4.87237 30.7975 4.62218 30.25 4.59425 29.6695C4.56632 29.089 4.76279 28.52 5.14296 28.0804C5.52312 27.6409 6.05782 27.3644 6.63628 27.3083L6.85353 27.2977H30.9923ZM30.9923 16.737C31.5925 16.737 32.1681 16.9754 32.5925 17.3998C33.0169 17.8242 33.2554 18.3998 33.2554 19C33.2554 19.6002 33.0169 20.1758 32.5925 20.6002C32.1681 21.0246 31.5925 21.263 30.9923 21.263H6.85353C6.25334 21.263 5.67773 21.0246 5.25334 20.6002C4.82894 20.1758 4.59052 19.6002 4.59052 19C4.59052 18.3998 4.82894 17.8242 5.25334 17.3998C5.67773 16.9754 6.25334 16.737 6.85353 16.737H30.9923ZM30.9923 6.17627C31.5925 6.17627 32.1681 6.41469 32.5925 6.83909C33.0169 7.26349 33.2554 7.83909 33.2554 8.43928C33.2554 9.03947 33.0169 9.61508 32.5925 10.0395C32.1681 10.4639 31.5925 10.7023 30.9923 10.7023H6.85353C6.25334 10.7023 5.67773 10.4639 5.25334 10.0395C4.82894 9.61508 4.59052 9.03947 4.59052 8.43928C4.59052 7.83909 4.82894 7.26349 5.25334 6.83909C5.67773 6.41469 6.25334 6.17627 6.85353 6.17627H30.9923Z" fill="white"/>
</svg>
