<svg width="36" height="36" viewBox="0 0 36 36" fill="none" xmlns="http://www.w3.org/2000/svg">
<rect x="0.850098" y="1.06262" width="34.4367" height="33.9997" rx="16.9999" stroke="#8D58F8"/>
<path d="M18.3269 8.56262C13.1186 8.56341 10.3501 11.9003 10.3501 15.5388C10.3501 17.2258 11.293 19.3309 12.8027 19.9982C13.2333 20.1922 13.1763 19.9555 13.5468 18.5384C13.5639 18.4812 13.5654 18.4204 13.5512 18.3624C13.537 18.3044 13.5076 18.2512 13.4661 18.2083C11.308 15.7122 13.0449 10.5806 18.019 10.5806C25.2176 10.5806 23.8726 20.5413 19.2714 20.5413C18.0855 20.5413 17.202 19.6103 17.4814 18.4585C17.8203 17.0865 18.4837 15.6116 18.4837 14.6228C18.4837 12.1307 14.7708 12.5004 14.7708 15.8024C14.7708 16.8229 15.1318 17.5116 15.1318 17.5116C15.1318 17.5116 13.9371 22.3376 13.7155 23.2393C13.3402 24.7657 13.7661 27.2365 13.8033 27.4494C13.8263 27.5666 13.9577 27.6038 14.0313 27.5072C14.1493 27.3528 15.5933 25.2929 15.9978 23.8038C16.1451 23.2615 16.7491 21.0607 16.7491 21.0607C17.1473 21.7795 18.2953 22.3812 19.5184 22.3812C23.1569 22.3812 25.7868 19.1828 25.7868 15.2142C25.7741 11.4095 22.518 8.56262 18.3269 8.56262Z" fill="#8D58F8"/>
</svg>
