<svg width="100" height="101" viewBox="0 0 100 101" fill="none" xmlns="http://www.w3.org/2000/svg">
<g clip-path="url(#clip0_426_955)">
<path d="M17.7084 1.3125H82.2918C92.0834 1.3125 100 9.2291 100 19.0209V81.1043C100 90.8959 92.0834 98.8127 82.2916 98.8127H17.7084C7.9166 98.8125 0 90.8959 0 81.1041V19.0209C0 9.2291 7.9166 1.3125 17.7084 1.3125Z" fill="#001834"/>
<path d="M22.5 69.6874V26.8124C22.5 26.5208 22.625 26.354 22.9166 26.354C23.625 26.354 24.2916 26.354 25.25 26.3124C26.25 26.2708 27.2916 26.2708 28.4166 26.229C29.5416 26.1872 30.75 26.1874 32.0416 26.1456C33.3332 26.104 34.5832 26.104 35.8332 26.104C39.2498 26.104 42.0832 26.5206 44.4166 27.3956C46.5 28.104 48.4166 29.2706 50 30.8122C51.3334 32.1456 52.375 33.7706 53.0416 35.5622C53.6666 37.3122 54 39.1038 54 40.9788C54 44.5622 53.1666 47.5204 51.5 49.8538C49.8334 52.1872 47.5 53.9372 44.7916 54.9372C41.9582 55.9788 38.8332 56.3538 35.4166 56.3538C34.4166 56.3538 33.75 56.3538 33.3332 56.3122C32.9166 56.2706 32.3332 56.2706 31.5416 56.2706V69.6456C31.5832 69.9372 31.375 70.1872 31.0832 70.229C31.0416 70.229 30.9998 70.229 30.9166 70.229H23C22.6666 70.229 22.5 70.0624 22.5 69.6874ZM31.5834 34.3958V48.3958C32.1668 48.4374 32.7084 48.4792 33.2084 48.4792H35.4168C38.2939 48.4792 41.6168 47.803 43.625 45.521C45.3533 43.5569 45.3582 39.662 43.9584 37.521C42.2967 34.9794 38.9736 34.2431 36.125 34.3126C35.0416 34.3126 34.0834 34.3126 33.2916 34.3542C32.4584 34.3124 31.875 34.354 31.5834 34.3958Z" fill="#00A9FF"/>
<path d="M80 45.8541C78.75 45.1875 77.4166 44.7291 76 44.4375C74.4584 44.1041 72.9166 43.8959 71.3334 43.8959C70.5 43.8543 69.625 43.9793 68.8334 44.1875C68.2918 44.3125 67.8334 44.6041 67.5418 45.0209C67.3334 45.3543 67.2084 45.7709 67.2084 46.1459C67.2084 46.5209 67.375 46.8959 67.625 47.2293C68 47.6877 68.5 48.0627 69.0416 48.3543C70 48.8543 71 49.3127 72 49.7293C74.25 50.4793 76.4166 51.5209 78.4166 52.7709C79.7916 53.6459 80.9166 54.8125 81.7082 56.2293C82.3748 57.5627 82.7082 59.0209 82.6666 60.5209C82.7082 62.4793 82.125 64.4375 81.0416 66.0625C79.875 67.7291 78.25 69.0209 76.375 69.7709C74.3334 70.6459 71.8334 71.1043 68.8334 71.1043C66.9168 71.1043 65.0418 70.9377 63.1668 70.5627C61.7084 70.3127 60.2502 69.8543 58.9168 69.2293C58.6252 69.0627 58.4168 68.7709 58.4584 68.4377V61.1877C58.4584 61.0627 58.5 60.8961 58.625 60.8127C58.75 60.7293 58.875 60.7711 59 60.8543C60.625 61.8127 62.3334 62.4793 64.1666 62.8959C65.75 63.3125 67.4166 63.5209 69.0832 63.5209C70.6666 63.5209 71.7916 63.3125 72.5416 62.9375C73.2082 62.6459 73.6666 61.9375 73.6666 61.1875C73.6666 60.6041 73.3332 60.0625 72.6666 59.5209C72 58.9793 70.625 58.3543 68.5832 57.5625C66.4582 56.8125 64.4998 55.8125 62.6666 54.5625C61.375 53.6459 60.2916 52.4375 59.5 51.0209C58.8334 49.6875 58.5 48.2293 58.5416 46.7709C58.5416 44.9793 59.0416 43.2709 59.9582 41.7293C60.9998 40.0627 62.5416 38.7293 64.3332 37.8959C66.2916 36.8959 68.7498 36.4375 71.7082 36.4375C73.4166 36.4375 75.1666 36.5625 76.8748 36.8125C78.1248 36.9791 79.3332 37.3125 80.4582 37.7709C80.6248 37.8125 80.7916 37.9793 80.8748 38.1459C80.9164 38.3125 80.9582 38.4793 80.9582 38.6459V45.4375C80.9582 45.6041 80.8748 45.7709 80.7498 45.8541C80.375 45.9375 80.1666 45.9375 80 45.8541Z" fill="#00A9FF"/>
</g>
<defs>
<clipPath id="clip0_426_955">
<rect width="100" height="100" fill="white" transform="translate(0 0.0625)"/>
</clipPath>
</defs>
</svg>
