<svg width="100" height="101" viewBox="0 0 100 101" fill="none" xmlns="http://www.w3.org/2000/svg">
<path d="M50.0008 4.22852L21.8174 7.30513L0.000610352 35.4694L50.0017 95.8941L99.9989 35.4694L78.1822 7.30513L50.0008 4.22852Z" fill="#FDB300"/>
<path d="M0 35.4695L50.001 95.8963L20.2522 35.4695H0Z" fill="#EA6C00"/>
<path d="M79.7478 35.4695L50.0027 95.8963L100 35.4695H79.7478Z" fill="#EA6C00"/>
<path d="M21.8174 7.30513L20.2528 35.4694L50.0009 4.22852L21.8174 7.30513Z" fill="#FDD231"/>
<path d="M79.7478 35.4694L78.1832 7.30513L50.0018 4.22852L79.7478 35.4694Z" fill="#FDD231"/>
<path d="M79.7478 35.4695H100L78.1832 7.30518L79.7478 35.4695Z" fill="#FDAD00"/>
<path d="M0 35.4695H20.2522L21.8168 7.30518L0 35.4695Z" fill="#FDAD00"/>
<path d="M50.0008 4.22852L20.2528 35.4694H79.7468L50.0008 4.22852Z" fill="#FEEEB7"/>
<path d="M20.252 35.4695L50.0008 95.8963L79.748 35.4695H20.252Z" fill="#FDAD00"/>
<path d="M50.0008 4.22852L21.8174 7.30513L0.000610352 35.4694L50.0017 95.8941L99.9989 35.4694L78.1822 7.30513L50.0008 4.22852Z" fill="url(#paint0_linear_426_885)"/>
<defs>
<linearGradient id="paint0_linear_426_885" x1="5.27082" y1="24.1707" x2="87.4083" y2="62.4707" gradientUnits="userSpaceOnUse">
<stop stop-color="white" stop-opacity="0.2"/>
<stop offset="1" stop-color="white" stop-opacity="0"/>
</linearGradient>
</defs>
</svg>
