<svg width="100" height="101" viewBox="0 0 100 101" fill="none" xmlns="http://www.w3.org/2000/svg">
<path d="M17.7083 1.3125H82.2917C92.0717 1.3125 100 9.2408 100 19.0208V81.1043C100 90.8843 92.0717 98.8126 82.2917 98.8126H17.7083C7.9283 98.8126 0 90.8843 0 81.1043V19.0208C0 9.2408 7.9283 1.3125 17.7083 1.3125Z" fill="#470137"/>
<path d="M52.5697 26.9534L40.0921 47.548L53.4417 69.4171C53.5273 69.57 53.5513 69.7501 53.5089 69.9202C53.4638 70.0774 53.3078 69.9784 53.0394 70.0226H43.5137C42.8426 70.0226 42.3731 69.9989 42.1047 69.5513C41.2097 67.8072 40.3151 66.0742 39.4214 64.3524C38.5263 62.6312 37.576 60.8757 36.5705 59.0863C35.5643 57.2983 34.5692 55.487 33.5853 53.6525H33.5181C32.623 55.4417 31.6949 57.2307 30.734 59.0192C29.7719 60.8084 28.8215 62.586 27.8831 64.3522C26.9438 66.1194 25.9823 67.8748 24.9986 69.6183C24.8193 70.0208 24.5058 70.0622 24.0591 70.0622H14.8688C14.6905 70.0622 14.5899 70.1327 14.5668 69.9536C14.5416 69.79 14.5774 69.623 14.6676 69.4841L27.6145 48.2187L15.003 26.8862C14.8688 26.7081 14.8465 26.5628 14.9358 26.4503C15.0362 26.3343 15.1854 26.2722 15.3385 26.2825H24.797C25.0033 26.2712 25.2095 26.3056 25.4009 26.3833C25.5613 26.4741 25.6989 26.6003 25.8034 26.7523C26.6085 28.5415 27.503 30.3303 28.4868 32.1189C29.4701 33.9081 30.465 35.6747 31.472 37.4186C32.4783 39.1627 33.4064 40.9292 34.2561 42.7182H34.3233C35.2172 40.8849 36.1229 39.0961 37.0402 37.3516C37.9564 35.6075 38.8955 33.8521 39.8575 32.0855C40.8188 30.3194 41.7469 28.5639 42.6416 26.8194C42.693 26.6538 42.7854 26.504 42.91 26.3835C43.0756 26.2995 43.2617 26.2646 43.4467 26.2827H52.2345C52.4406 26.232 52.649 26.3577 52.7 26.5638C52.7351 26.7077 52.6845 26.8595 52.5697 26.9534Z" fill="#FF61F6"/>
<path d="M71.8217 70.8931C68.7341 70.94 65.6746 70.2984 62.8661 69.0146C60.2498 67.8037 58.0625 65.827 56.594 63.346C55.073 60.8199 54.3128 57.6558 54.3132 53.8537C54.288 50.7749 55.0747 47.7437 56.594 45.0657C58.159 42.338 60.4607 40.1061 63.2352 38.6256C66.1418 37.0157 69.6524 36.2107 73.7674 36.2107C73.9906 36.2107 74.2812 36.2218 74.6394 36.2442C74.9968 36.2673 75.4218 36.3007 75.914 36.3448V23.1294C75.914 22.8171 76.0484 22.6599 76.3167 22.6599H84.769C84.9635 22.6321 85.1438 22.7673 85.1715 22.9618C85.1762 22.9952 85.1762 23.029 85.1715 23.0624V62.7088C85.1715 63.4697 85.2051 64.2972 85.2721 65.1909C85.3393 66.086 85.3952 66.8911 85.4399 67.6059C85.4567 67.891 85.2969 68.1574 85.0372 68.2768C82.8566 69.1861 80.5853 69.8609 78.262 70.2892C76.1374 70.6814 73.9822 70.8833 71.8217 70.8931ZM75.9138 62.5748V44.261C75.5513 44.1628 75.181 44.0954 74.807 44.0597C74.35 44.0138 73.891 43.9913 73.4316 43.9927C71.8037 43.9765 70.195 44.3442 68.7359 45.0659C67.3146 45.7723 66.1012 46.8356 65.2141 48.1517C64.2969 49.4933 63.8385 51.2599 63.8387 53.4514C63.8061 54.9137 64.045 56.3695 64.543 57.7446C64.9485 58.8528 65.5893 59.8598 66.4215 60.6963C67.2181 61.466 68.1826 62.04 69.2388 62.3734C70.3546 62.7347 71.5207 62.9158 72.6936 62.9099C73.3193 62.9099 73.9008 62.8875 74.4377 62.8429C74.938 62.8054 75.4326 62.7154 75.9138 62.5748Z" fill="#FF61F6"/>
</svg>
